{"title":"Escape Plan 2013 720p R6 PROPER HDRip x264 AC3-SmY [P2PDL]","uid":9345413,"size":1779171808,"categoryP":"video","categoryS":"hd___movies","magnet":"?xt=urn:btih:8e5e116770dde03d1242573f53d49680c97d2cd9&amp;dn=Escape+Plan+2013+720p+R6+PROPER+HDRip+x264+AC3-SmY+%5BP2PDL%5D&amp;tr=udp%3A%2F%2Ftracker.openbittorrent.com%3A80&amp;tr=udp%3A%2F%2Fopen.demonii.com%3A1337&amp;tr=udp%3A%2F%2Ftracker.coppersurfer.tk%3A6969&amp;tr=udp%3A%2F%2Fexodus.desync.com%3A6969","seeders":0,"leechers":0,"uploader":"TeX","files":-1,"time":1387033001,"description":" &lt;a href=&quot;http://imageshack.us/a/img43/1034/7mxv.jpg&quot; rel=&quot;nofollow&quot; target=&quot;_NEW&quot;&gt;http://imageshack.us/a/img43/1034/7mxv.jpg&lt;/a&gt;\n\n Format : Matroska\n      File size : 1.66 GiB\n      Duration : 1h 48mn\n      Overall bit rate : 2 193 Kbps\n      Encoded date : UTC 2013-12-13 16:44:42\n      Writing application : mkvmerge v5.2.0 ('I can't explain') built on Dec 18 2011 18:12:03\n      Writing library : libebml v1.2.3 + libmatroska v1.3.0\n   Video #1\n      ID : 1\n      Format : AVC\n      Format/Info : Advanced Video Codec\n      Format profile : &lt;a class=&quot;__cf_email__&quot; href=&quot;/cdn-cgi/l/email-protection&quot; data-cfemail=&quot;6b23020c032b2758455a&quot;&gt;[email&amp;#160;protected]&lt;/a&gt;&lt;script data-cfhash='f9e31' type=&quot;text/javascript&quot;&gt;\n/* &lt;![CDATA[ */!function(){try{var t=&quot;currentScript&quot;in document?document.currentScript:function(){for(var t=document.getElementsByTagName(&quot;script&quot;),e=t.length;e--;)if(t[e].getAttribute(&quot;data-cfhash&quot;))return t[e]}();if(t&amp;&amp;t.previousSibling){var e,r,n,i,c=t.previousSibling,a=c.getAttribute(&quot;data-cfemail&quot;);if(a){for(e=&quot;&quot;,r=parseInt(a.substr(0,2),16),n=2;a.length-n;n+=2)i=parseInt(a.substr(n,2),16)^r,e+=String.fromCharCode(i);e=document.createTextNode(e),c.parentNode.replaceChild(e,c)}t.parentNode.removeChild(t);}}catch(u){}}()/* ]]&gt; */&lt;/script&gt;\n      Format settings, CABAC : Yes\n      Format settings, ReFrames : 4 frames\n      Format settings, GOP : M=1, N=12\n      Muxing mode : Header stripping\n      Codec ID : V_MPEG4/ISO/AVC\n      Duration : 1h 48mn\n      Bit rate : 2 000 Kbps\n      Width : 1 280 pixels\n      Height : 520 pixels\n      Display aspect ratio : 2.462\n      Frame rate : 23.976 fps\n      Color space : YUV\n      Chroma subsampling : 4:2:0\n      Bit depth : 8 bits\n      Scan type : Progressive\n      Bits/(Pixel*Frame) : 0.125\n      Stream size : 1.48 GiB (89%)\n      Writing library : x264 core 116 r2074 2641b9e\n      \n   Audio #2\n      ID : 2\n      Format : AC-3\n      Format/Info : Audio Coding 3\n      Mode extension : CM (complete main)\n      Muxing mode : Header stripping\n      Codec ID : A_AC3\n      Duration : 1h 48mn\n      Bit rate mode : Constant\n      Bit rate : 192 Kbps\n      Channel(s) : 2 channels\n      Channel positions : Front: L R\n      Sampling rate : 44.1 KHz\n      Bit depth : 16 bits\n      Compression mode : Lossy\n      Stream size : 149 MiB (9%)\n &lt;a href=&quot;\nhttp://i.imgur.com/ujUSLdE.jpg&quot; rel=&quot;nofollow&quot; target=&quot;_NEW&quot;&gt;\nhttp://i.imgur.com/ujUSLdE.jpg&lt;/a&gt; &lt;a href=&quot;\nhttp://i.imgur.com/7WVD4pZ.jpg&quot; rel=&quot;nofollow&quot; target=&quot;_NEW&quot;&gt;\nhttp://i.imgur.com/7WVD4pZ.jpg&lt;/a&gt; &lt;a href=&quot;\nhttp://i.imgur.com/2VCkx0l.jpg&quot; rel=&quot;nofollow&quot; target=&quot;_NEW&quot;&gt;\nhttp://i.imgur.com/2VCkx0l.jpg&lt;/a&gt; &lt;a href=&quot;\nhttp://i.imgur.com/9qsezcC.jpg&quot; rel=&quot;nofollow&quot; target=&quot;_NEW&quot;&gt;\nhttp://i.imgur.com/9qsezcC.jpg&lt;/a&gt;","torrent":{"xt":"urn:btih:8e5e116770dde03d1242573f53d49680c97d2cd9","amp;dn":"Escape+Plan+2013+720p+R6+PROPER+HDRip+x264+AC3-SmY+%5BP2PDL%5D","amp;tr":["udp%3A%2F%2Ftracker.openbittorrent.com%3A80","udp%3A%2F%2Fopen.demonii.com%3A1337","udp%3A%2F%2Ftracker.coppersurfer.tk%3A6969","udp%3A%2F%2Fexodus.desync.com%3A6969"],"infoHash":"8e5e116770dde03d1242573f53d49680c97d2cd9","infoHashBuffer":{"type":"Buffer","data":[142,94,17,103,112,221,224,61,18,66,87,63,83,212,150,128,201,125,44,217]},"announce":[],"urlList":[]}}